<mxfile host="app.diagrams.net" agent="Mozilla/5.0 (Windows NT 10.0; Win64; x64) AppleWebKit/537.36 (KHTML, like Gecko) Chrome/137.0.0.0 Safari/537.36 OPR/121.0.0.0" version="28.2.5">
  <diagram name="Página-1" id="2rj19UhDSFJnFfgUXsGi">
    <mxGraphModel grid="1" page="1" gridSize="10" guides="1" tooltips="1" connect="1" arrows="1" fold="1" pageScale="1" pageWidth="827" pageHeight="1169" math="0" shadow="0">
      <root>
        <mxCell id="0" />
        <mxCell id="1" parent="0" />
        <mxCell id="AyxYlHVRZTqRhhLJ_Fwl-61" value="Usuario" style="shape=umlActor;verticalLabelPosition=bottom;verticalAlign=top;html=1;labelPosition=center;align=center;" vertex="1" parent="1">
          <mxGeometry x="480" y="160" width="30" height="60" as="geometry" />
        </mxCell>
        <mxCell id="AyxYlHVRZTqRhhLJ_Fwl-62" value="V_page.tsx" style="html=1;whiteSpace=wrap;fillColor=#ffe6cc;strokeColor=#d79b00;" vertex="1" parent="1">
          <mxGeometry x="580" y="165" width="110" height="50" as="geometry" />
        </mxCell>
        <mxCell id="AyxYlHVRZTqRhhLJ_Fwl-63" value="C_search&lt;br&gt;(route.ts)" style="html=1;whiteSpace=wrap;fillColor=#e1d5e7;strokeColor=#9673a6;" vertex="1" parent="1">
          <mxGeometry x="770" y="165" width="110" height="50" as="geometry" />
        </mxCell>
        <mxCell id="AyxYlHVRZTqRhhLJ_Fwl-64" value="" style="endArrow=none;dashed=1;html=1;rounded=0;" edge="1" parent="1">
          <mxGeometry width="50" height="50" relative="1" as="geometry">
            <mxPoint x="500" y="690" as="sourcePoint" />
            <mxPoint x="500" y="240" as="targetPoint" />
          </mxGeometry>
        </mxCell>
        <mxCell id="AyxYlHVRZTqRhhLJ_Fwl-65" value="" style="endArrow=none;dashed=1;html=1;rounded=0;entryX=0.5;entryY=1;entryDx=0;entryDy=0;" edge="1" parent="1" target="AyxYlHVRZTqRhhLJ_Fwl-62">
          <mxGeometry width="50" height="50" relative="1" as="geometry">
            <mxPoint x="635" y="690" as="sourcePoint" />
            <mxPoint x="680" y="300" as="targetPoint" />
          </mxGeometry>
        </mxCell>
        <mxCell id="AyxYlHVRZTqRhhLJ_Fwl-66" value="" style="endArrow=classic;html=1;rounded=0;" edge="1" parent="1">
          <mxGeometry width="50" height="50" relative="1" as="geometry">
            <mxPoint x="500" y="310" as="sourcePoint" />
            <mxPoint x="630" y="310" as="targetPoint" />
          </mxGeometry>
        </mxCell>
        <mxCell id="AyxYlHVRZTqRhhLJ_Fwl-67" value="busca un producto en la search bar" style="text;html=1;align=center;verticalAlign=middle;whiteSpace=wrap;rounded=0;" vertex="1" parent="1">
          <mxGeometry x="530" y="270" width="80" height="30" as="geometry" />
        </mxCell>
        <mxCell id="AyxYlHVRZTqRhhLJ_Fwl-68" value="" style="endArrow=none;dashed=1;html=1;rounded=0;entryX=0.5;entryY=1;entryDx=0;entryDy=0;" edge="1" parent="1" target="AyxYlHVRZTqRhhLJ_Fwl-63">
          <mxGeometry width="50" height="50" relative="1" as="geometry">
            <mxPoint x="826" y="690" as="sourcePoint" />
            <mxPoint x="636" y="300" as="targetPoint" />
          </mxGeometry>
        </mxCell>
        <mxCell id="AyxYlHVRZTqRhhLJ_Fwl-69" value="" style="endArrow=none;dashed=1;html=1;rounded=0;entryX=0.5;entryY=1;entryDx=0;entryDy=0;" edge="1" parent="1" target="AyxYlHVRZTqRhhLJ_Fwl-84">
          <mxGeometry width="50" height="50" relative="1" as="geometry">
            <mxPoint x="995" y="690" as="sourcePoint" />
            <mxPoint x="995" y="215" as="targetPoint" />
          </mxGeometry>
        </mxCell>
        <mxCell id="AyxYlHVRZTqRhhLJ_Fwl-70" value="&lt;font style=&quot;font-size: 9px;&quot;&gt;GET api/products/search&lt;/font&gt;" style="html=1;verticalAlign=bottom;endArrow=block;curved=0;rounded=0;" edge="1" parent="1">
          <mxGeometry width="80" relative="1" as="geometry">
            <mxPoint x="640" y="340" as="sourcePoint" />
            <mxPoint x="820" y="340" as="targetPoint" />
            <mxPoint as="offset" />
          </mxGeometry>
        </mxCell>
        <mxCell id="AyxYlHVRZTqRhhLJ_Fwl-71" value="Click en añadir el producto" style="html=1;verticalAlign=bottom;endArrow=block;curved=0;rounded=0;" edge="1" parent="1">
          <mxGeometry width="80" relative="1" as="geometry">
            <mxPoint x="500" y="400" as="sourcePoint" />
            <mxPoint x="640" y="400" as="targetPoint" />
            <mxPoint as="offset" />
          </mxGeometry>
        </mxCell>
        <mxCell id="AyxYlHVRZTqRhhLJ_Fwl-73" value="" style="endArrow=none;dashed=1;html=1;rounded=0;" edge="1" parent="1" target="AyxYlHVRZTqRhhLJ_Fwl-85">
          <mxGeometry width="50" height="50" relative="1" as="geometry">
            <mxPoint x="1135" y="690" as="sourcePoint" />
            <mxPoint x="1135" y="215" as="targetPoint" />
          </mxGeometry>
        </mxCell>
        <mxCell id="AyxYlHVRZTqRhhLJ_Fwl-75" value="" style="endArrow=none;dashed=1;html=1;rounded=0;entryX=0.5;entryY=1;entryDx=0;entryDy=0;" edge="1" parent="1">
          <mxGeometry width="50" height="50" relative="1" as="geometry">
            <mxPoint x="1374.52" y="685" as="sourcePoint" />
            <mxPoint x="1374.52" y="210" as="targetPoint" />
          </mxGeometry>
        </mxCell>
        <mxCell id="AyxYlHVRZTqRhhLJ_Fwl-76" value="cart_items" style="html=1;whiteSpace=wrap;fillColor=#d5e8d4;strokeColor=#82b366;" vertex="1" parent="1">
          <mxGeometry x="1320" y="160" width="110" height="50" as="geometry" />
        </mxCell>
        <mxCell id="AyxYlHVRZTqRhhLJ_Fwl-78" value="ejecuta hnadleAddTocart(productid)" style="html=1;verticalAlign=bottom;endArrow=block;curved=0;rounded=0;" edge="1" parent="1">
          <mxGeometry width="80" relative="1" as="geometry">
            <mxPoint x="630" y="430" as="sourcePoint" />
            <mxPoint x="1000" y="430" as="targetPoint" />
            <mxPoint as="offset" />
          </mxGeometry>
        </mxCell>
        <mxCell id="AyxYlHVRZTqRhhLJ_Fwl-80" value="INSERT INTO cart_items(cart_id, product_id,quantity, price&lt;span style=&quot;background-color: light-dark(#ffffff, var(--ge-dark-color, #121212)); color: light-dark(rgb(0, 0, 0), rgb(255, 255, 255));&quot;&gt;)&lt;/span&gt;" style="html=1;verticalAlign=bottom;endArrow=block;curved=0;rounded=0;" edge="1" parent="1">
          <mxGeometry width="80" relative="1" as="geometry">
            <mxPoint x="1130" y="480" as="sourcePoint" />
            <mxPoint x="1380" y="480" as="targetPoint" />
            <mxPoint as="offset" />
          </mxGeometry>
        </mxCell>
        <mxCell id="AyxYlHVRZTqRhhLJ_Fwl-81" value="item agregado exitosamente" style="html=1;verticalAlign=bottom;endArrow=open;dashed=1;endSize=8;curved=0;rounded=0;" edge="1" parent="1">
          <mxGeometry relative="1" as="geometry">
            <mxPoint x="1370" y="500" as="sourcePoint" />
            <mxPoint x="1130" y="500" as="targetPoint" />
          </mxGeometry>
        </mxCell>
        <mxCell id="AyxYlHVRZTqRhhLJ_Fwl-83" value="muestra toast &quot;producto añadido al carrito&quot;" style="html=1;verticalAlign=bottom;endArrow=block;curved=0;rounded=0;" edge="1" parent="1">
          <mxGeometry width="80" relative="1" as="geometry">
            <mxPoint x="990" y="570" as="sourcePoint" />
            <mxPoint x="500" y="570" as="targetPoint" />
            <mxPoint as="offset" />
          </mxGeometry>
        </mxCell>
        <mxCell id="AyxYlHVRZTqRhhLJ_Fwl-84" value="V_add-to-cart-button.tsx" style="html=1;whiteSpace=wrap;fillColor=#ffe6cc;strokeColor=#d79b00;" vertex="1" parent="1">
          <mxGeometry x="940" y="160" width="110" height="50" as="geometry" />
        </mxCell>
        <mxCell id="AyxYlHVRZTqRhhLJ_Fwl-85" value="C_cart&lt;br&gt;(route.ts)" style="html=1;whiteSpace=wrap;fillColor=#e1d5e7;strokeColor=#9673a6;" vertex="1" parent="1">
          <mxGeometry x="1080" y="160" width="110" height="50" as="geometry" />
        </mxCell>
        <mxCell id="AyxYlHVRZTqRhhLJ_Fwl-87" value="Retorna [productos]" style="html=1;verticalAlign=bottom;endArrow=open;dashed=1;endSize=8;curved=0;rounded=0;" edge="1" parent="1">
          <mxGeometry relative="1" as="geometry">
            <mxPoint x="820" y="360" as="sourcePoint" />
            <mxPoint x="640" y="360" as="targetPoint" />
          </mxGeometry>
        </mxCell>
        <mxCell id="AyxYlHVRZTqRhhLJ_Fwl-88" value="&lt;font style=&quot;font-size: 9px;&quot;&gt;POST /api/cart {productid: , quantity}&lt;/font&gt;" style="html=1;verticalAlign=bottom;endArrow=block;curved=0;rounded=0;" edge="1" parent="1">
          <mxGeometry width="80" relative="1" as="geometry">
            <mxPoint x="990" y="450" as="sourcePoint" />
            <mxPoint x="1140" y="450" as="targetPoint" />
            <mxPoint as="offset" />
          </mxGeometry>
        </mxCell>
        <mxCell id="AyxYlHVRZTqRhhLJ_Fwl-89" value="{succes:true, cartItiemid:}" style="html=1;verticalAlign=bottom;endArrow=open;dashed=1;endSize=8;curved=0;rounded=0;" edge="1" parent="1">
          <mxGeometry relative="1" as="geometry">
            <mxPoint x="1140" y="520" as="sourcePoint" />
            <mxPoint x="990" y="520" as="targetPoint" />
          </mxGeometry>
        </mxCell>
      </root>
    </mxGraphModel>
  </diagram>
</mxfile>
